<?xml version="1.0" standalone="no"?>
<!DOCTYPE svg PUBLIC "-//W3C//DTD SVG 20010904//EN"
 "http://www.w3.org/TR/2001/REC-SVG-20010904/DTD/svg10.dtd">
<svg version="1.0" xmlns="http://www.w3.org/2000/svg"
 width="50.000000pt" height="50.000000pt" viewBox="0 0 50.000000 50.000000"
 preserveAspectRatio="xMidYMid meet">
<metadata>
Created by potrace 1.10, written by Peter Selinger 2001-2011
</metadata>
<g transform="translate(0.000000,50.000000) scale(0.100000,-0.100000)"
fill="#000000" stroke="none">
<path d="M158 440 c-68 -37 -120 -121 -117 -190 1 -15 7 -3 14 29 25 103 104
166 206 165 160 -2 249 -176 164 -320 -29 -50 -68 -80 -127 -99 -33 -10 -37
-13 -18 -14 14 0 43 8 65 18 164 74 182 300 33 398 -55 37 -164 44 -220 13z"/>
<path d="M191 344 c-57 -47 -28 -114 48 -114 59 0 91 -15 91 -43 0 -45 -87
-63 -133 -27 -21 17 -27 17 -36 6 -9 -11 -6 -18 15 -35 74 -59 194 -22 194 60
0 41 -41 69 -100 69 -54 0 -81 20 -63 48 14 23 78 27 108 8 22 -15 25 -15 34
2 8 16 4 22 -25 35 -51 25 -97 22 -133 -9z"/>
<path d="M73 114 c8 -16 35 -39 59 -52 23 -12 34 -17 23 -10 -11 7 -37 31 -59
52 -35 36 -37 37 -23 10z"/>
</g>
</svg>
